<svg width="439" height="594" viewBox="0 0 439 594" fill="none" xmlns="http://www.w3.org/2000/svg">
<path fillRule="evenodd" clipRule="evenodd" d="M0 14.9281C0 6.68353 5.30242 0 11.8433 0L427.157 0.000934938C433.698 0.000934938 439 6.68448 439 14.9291V439.097C433.158 440.015 428.637 446.297 428.637 453.909C428.637 461.521 433.158 467.803 439 468.721V579.072C439 587.317 433.698 594 427.157 594L11.8433 593.999C5.30243 593.999 0 587.316 0 579.071V468.72C5.84216 467.802 10.3629 461.52 10.3629 453.908C10.3629 446.296 5.84216 440.014 0 439.096V14.9281Z" fill="white"/>
</svg>
