<?xml version="1.0" standalone="no"?>
<!DOCTYPE svg PUBLIC "-//W3C//DTD SVG 20010904//EN"
 "http://www.w3.org/TR/2001/REC-SVG-20010904/DTD/svg10.dtd">
<svg version="1.0" xmlns="http://www.w3.org/2000/svg"
 width="700.000000pt" height="700.000000pt" viewBox="0 0 700.000000 700.000000"
 preserveAspectRatio="xMidYMid meet">
<g transform="translate(0.000000,700.000000) scale(0.100000,-0.100000)"
fill="#000000" stroke="none">
<path d="M3398 6995 c-2 -1 -55 -5 -118 -9 -63 -3 -126 -8 -140 -10 -14 -3
-50 -7 -80 -10 -30 -4 -68 -9 -85 -11 -682 -114 -1230 -365 -1756 -805 -83
-69 -277 -261 -349 -346 -36 -41 -73 -85 -84 -97 -134 -157 -307 -427 -424
-662 -116 -234 -239 -581 -278 -785 -2 -14 -9 -45 -14 -70 -10 -49 -35 -198
-45 -270 -15 -117 -20 -222 -19 -425 0 -244 9 -377 39 -546 3 -14 7 -41 9 -60
14 -107 111 -475 146 -554 5 -11 30 -74 56 -140 46 -118 120 -274 184 -391 51
-92 55 -97 62 -108 5 -6 40 -60 78 -119 209 -322 511 -641 830 -879 88 -65
242 -168 251 -168 4 0 7 705 7 1568 1 862 3 1587 6 1611 20 168 39 258 86 401
64 197 174 397 311 565 59 73 192 207 244 247 17 12 36 28 43 35 52 50 261
173 392 231 111 49 288 102 390 117 25 4 47 8 50 10 24 15 374 22 470 10 516
-64 942 -293 1253 -672 240 -294 378 -632 415 -1021 10 -106 3 -338 -12 -383
-3 -8 -7 -32 -10 -54 -3 -22 -12 -70 -20 -106 -93 -399 -330 -771 -651 -1022
-33 -26 -64 -51 -70 -55 -37 -29 -205 -126 -280 -162 -98 -47 -288 -115 -349
-124 -21 -4 -42 -8 -46 -11 -28 -18 -221 -37 -395 -40 -195 -3 -251 2 -428 40
-56 12 -195 58 -287 97 -96 39 -284 141 -295 158 -3 6 -10 10 -14 10 -4 0 25
-34 66 -76 40 -41 91 -102 113 -135 63 -92 138 -252 155 -329 2 -8 8 -37 14
-64 22 -94 24 -167 25 -738 l0 -577 40 -7 c43 -7 53 -9 126 -19 25 -4 56 -8
70 -11 119 -19 580 -26 735 -10 456 45 857 161 1260 363 82 41 161 83 175 93
14 9 39 24 55 33 l30 15 -2 -157 c0 -86 3 -174 9 -196 15 -62 54 -111 111
-140 l51 -25 660 0 661 0 50 24 c56 26 83 53 108 109 16 35 17 252 17 3355 0
2287 -3 3329 -11 3355 -13 48 -60 102 -113 130 l-41 21 -1717 2 c-944 1 -1718
1 -1720 -1z"/>
</g>
</svg>
